<!DOCTYPE svg PUBLIC "-//W3C//DTD SVG 20010904//EN" "http://www.w3.org/TR/2001/REC-SVG-20010904/DTD/svg10.dtd">
<svg version="1.0" xmlns="http://www.w3.org/2000/svg" width="713px" height="176px" viewBox="0 0 7130 1760" preserveAspectRatio="xMidYMid meet">
<g id="layer101" fill="#000000" stroke="none">
 <path d="M320 1570 c0 -15 -7 -20 -25 -20 l-25 0 0 -163 0 -162 -135 -64 -135 -64 0 -184 c0 -100 2 -183 5 -183 3 0 64 29 135 65 l130 65 0 -79 0 -79 -82 -47 c-65 -36 -86 -44 -98 -36 -33 24 -61 34 -70 25 -5 -5 -10 -152 -12 -327 l-3 -317 60 0 60 1 -33 17 -32 18 30 17 30 18 0 245 c0 134 4 244 8 244 5 0 17 -7 28 -15 10 -8 24 -15 31 -15 6 0 66 32 133 70 67 38 132 70 145 70 15 0 25 8 30 23 7 19 8 18 14 -15 6 -35 13 -42 101 -93 52 -31 105 -63 118 -71 l23 -15 -25 -20 c-25 -20 -26 -25 -26 -120 0 -98 0 -99 -21 -89 -11 7 -26 10 -32 7 -9 -3 -11 13 -9 59 l4 63 -50 28 -49 27 5 47 c2 27 0 49 -6 53 -6 4 -52 -14 -102 -39 l-92 -46 -34 20 c-20 12 -39 21 -45 21 -5 0 -9 -66 -9 -159 l0 -159 -35 -22 c-19 -12 -35 -25 -35 -30 0 -4 49 -37 109 -74 105 -64 111 -66 175 -66 62 0 66 1 66 23 0 18 -24 36 -122 94 l-121 71 32 16 31 17 0 99 0 100 24 -11 c17 -8 30 -8 47 1 20 10 22 10 12 -1 -8 -7 -13 -38 -13 -70 l0 -57 51 -30 c30 -17 47 -32 40 -36 -13 -8 -15 -72 -3 -80 5 -3 48 13 97 35 98 43 111 45 139 24 43 -33 46 -24 46 144 l0 160 30 18 c17 9 30 22 30 28 0 6 -72 55 -160 108 l-160 98 0 81 c0 44 4 78 8 76 53 -22 382 -216 382 -225 0 -7 9 -13 19 -13 26 0 51 -10 51 -21 0 -5 -13 -15 -30 -24 l-30 -16 0 -244 c0 -135 -3 -245 -6 -245 -3 0 -18 7 -33 16 -28 16 -30 15 -167 -57 l-139 -74 117 -3 c116 -3 118 -2 185 32 l68 34 34 -24 c19 -13 38 -21 43 -18 4 3 8 144 8 313 l0 308 25 11 c14 7 37 12 50 12 18 0 25 5 25 20 0 15 7 20 25 20 l25 0 0 440 0 440 -110 0 c-103 0 -110 -1 -110 -20 0 -15 -7 -20 -25 -20 l-25 0 0 -145 0 -145 -195 0 -195 0 0 165 0 165 -110 0 c-103 0 -110 -1 -110 -20z m610 -661 c0 -50 -4 -89 -8 -87 -22 9 -290 153 -307 164 -17 12 4 14 148 14 l167 0 0 -91z"/>
 <path d="M1302 1550 c-28 -23 -53 -49 -56 -58 -3 -9 -8 -349 -12 -754 l-7 -738 57 0 56 0 0 335 0 335 390 0 c383 0 390 0 390 20 0 15 7 20 25 20 l25 0 0 110 0 110 -330 0 -330 0 0 35 0 35 305 0 c298 0 305 0 305 20 0 15 7 20 25 20 l25 0 0 110 0 110 -330 0 -330 0 0 35 0 35 305 0 c298 0 305 0 305 20 0 15 7 20 25 20 l25 0 0 110 0 110 -409 0 -408 0 -51 -40z"/>
 <path d="M2260 1570 c0 -15 -7 -20 -25 -20 l-25 0 0 -191 0 -191 29 -29 29 -29 -29 -29 -29 -29 0 -191 0 -191 110 0 c103 0 110 1 110 20 0 15 7 20 25 20 l25 0 0 145 0 145 195 0 195 0 0 -165 0 -165 110 0 c103 0 110 1 110 20 0 15 7 20 25 20 l25 0 0 191 0 191 -29 29 -29 29 29 29 29 29 0 191 0 191 -110 0 c-103 0 -110 -1 -110 -20 0 -15 -7 -20 -25 -20 l-25 0 0 -145 0 -145 -195 0 -195 0 0 165 0 165 -110 0 c-103 0 -110 -1 -110 -20z"/>
 <path d="M3230 1570 c0 -15 -7 -20 -25 -20 l-25 0 0 -411 0 -411 29 -29 29 -29 411 0 c404 0 411 0 411 20 0 15 7 20 25 20 l25 0 0 440 0 440 -110 0 c-103 0 -110 -1 -110 -20 0 -15 -7 -20 -25 -20 -25 0 -25 -1 -25 -90 l0 -90 -195 0 -195 0 0 110 0 110 -110 0 c-103 0 -110 -1 -110 -20z m610 -550 l0 -90 -195 0 -195 0 0 90 0 90 195 0 195 0 0 -90z"/>
 <path d="M4200 1570 c0 -15 -7 -20 -25 -20 l-25 0 0 -440 0 -440 409 0 408 0 51 40 c27 22 53 47 56 56 3 9 6 198 6 420 l0 404 -440 0 c-433 0 -440 0 -440 -20z m610 -440 l0 -200 -195 0 -195 0 0 200 0 200 195 0 195 0 0 -200z"/>
 <path d="M5170 1570 c0 -15 -7 -20 -25 -20 l-25 0 0 -411 0 -411 29 -29 29 -29 411 0 c404 0 411 0 411 20 0 15 7 20 25 20 l25 0 0 411 0 411 -29 29 -29 29 -411 0 c-404 0 -411 0 -411 -20z m610 -440 l0 -200 -195 0 -195 0 0 200 0 200 195 0 195 0 0 -200z"/>
 <path d="M6140 1570 c0 -15 -7 -20 -25 -20 l-25 0 0 -440 0 -440 409 0 408 0 51 40 c27 22 53 47 56 56 3 9 6 198 6 420 l0 404 -110 0 c-103 0 -110 -1 -110 -20 0 -15 -7 -20 -25 -20 l-25 0 0 -310 0 -310 -195 0 -195 0 0 330 0 330 -110 0 c-103 0 -110 -1 -110 -20z"/>
 </g>
<g id="layer102" fill="#ffffff" stroke="none">
 <path d="M270 1110 l0 -440 110 0 110 0 0 165 0 165 220 0 220 0 0 -165 0 -165 110 0 110 0 0 440 0 440 -110 0 -110 0 0 -165 0 -165 -220 0 -220 0 0 165 0 165 -110 0 -110 0 0 -440z"/>
 <path d="M1269 1520 l-29 -28 0 -411 0 -411 440 0 440 0 0 110 0 110 -330 0 -330 0 0 55 0 55 330 0 330 0 0 110 0 110 -330 0 -330 0 0 55 0 55 330 0 330 0 0 110 0 110 -411 0 -411 -1 -29 -29z"/>
 <path d="M2210 1359 l0 -191 29 -29 29 -29 -29 -29 -29 -29 0 -191 0 -191 110 0 110 0 0 165 0 165 220 0 220 0 0 -165 0 -165 110 0 110 0 0 174 c0 96 -4 186 -10 201 -5 14 -23 34 -40 43 -35 20 -37 28 -9 37 11 4 29 21 40 38 17 28 19 52 19 210 l0 177 -110 0 -110 0 0 -165 0 -165 -220 0 -220 0 0 165 0 165 -110 0 -110 0 0 -191z"/>
 <path d="M3180 1139 l0 -411 29 -29 29 -29 411 0 411 0 0 440 0 440 -110 0 -110 0 0 -110 0 -110 -220 0 -220 0 0 110 0 110 -110 0 -110 0 0 -411z m660 -139 l0 -110 -220 0 -220 0 0 110 0 110 220 0 220 0 0 -110z"/>
 <path d="M4150 1110 l0 -440 406 0 c260 0 412 4 425 10 46 25 49 57 49 476 l0 394 -440 0 -440 0 0 -440z m660 0 l0 -220 -220 0 -220 0 0 220 0 220 220 0 220 0 0 -220z"/>
 <path d="M5120 1139 l0 -411 29 -29 29 -29 411 0 411 0 0 394 c0 232 -4 405 -10 420 -5 14 -24 35 -42 46 -32 19 -51 20 -430 20 l-398 0 0 -411z m660 -29 l0 -220 -220 0 -220 0 0 220 0 220 220 0 220 0 0 -220z"/>
 <path d="M6090 1110 l0 -440 406 0 c260 0 412 4 425 10 46 25 49 57 49 476 l0 394 -110 0 -110 0 0 -330 0 -330 -220 0 -220 0 0 330 0 330 -110 0 -110 0 0 -440z"/>
 <path d="M495 417 c-39 -22 -40 -24 -40 -76 0 -51 2 -54 37 -74 l37 -22 46 23 46 22 -3 51 c-3 48 -6 52 -43 75 l-40 23 -40 -22z"/>
 </g>

</svg>